G04 EAGLE Gerber RS-274X export*
G75*
%MOMM*%
%FSLAX34Y34*%
%LPD*%
%INTop Copper*%
%IPPOS*%
%AMOC8*
5,1,8,0,0,1.08239X$1,22.5*%
G01*
%ADD10C,0.280000*%


D10*
X50800Y127000D03*
X54800Y127000D03*
X58800Y127000D03*
X62800Y127000D03*
X66800Y127000D03*
X70800Y127000D03*
X74800Y127000D03*
X78800Y127000D03*
X50800Y123000D03*
X54800Y123000D03*
X58800Y123000D03*
X62800Y123000D03*
X66800Y123000D03*
X70800Y123000D03*
X74800Y123000D03*
X78800Y123000D03*
X50800Y119000D03*
X54800Y119000D03*
X58800Y119000D03*
X62800Y119000D03*
X66800Y119000D03*
X70800Y119000D03*
X74800Y119000D03*
X78800Y119000D03*
X50800Y115000D03*
X54800Y115000D03*
X58800Y115000D03*
X62800Y115000D03*
X66800Y115000D03*
X70800Y115000D03*
X74800Y115000D03*
X78800Y115000D03*
X50800Y111000D03*
X54800Y111000D03*
X58800Y111000D03*
X62800Y111000D03*
X66800Y111000D03*
X70800Y111000D03*
X74800Y111000D03*
X78800Y111000D03*
X50800Y107000D03*
X54800Y107000D03*
X58800Y107000D03*
X62800Y107000D03*
X66800Y107000D03*
X70800Y107000D03*
X74800Y107000D03*
X78800Y107000D03*
X50800Y103000D03*
X54800Y103000D03*
X58800Y103000D03*
X62800Y103000D03*
X66800Y103000D03*
X70800Y103000D03*
X74800Y103000D03*
X78800Y103000D03*
M02*
