G04 EAGLE Gerber RS-274X export*
G75*
%MOMM*%
%FSLAX34Y34*%
%LPD*%
%INSilkscreen Top*%
%IPPOS*%
%AMOC8*
5,1,8,0,0,1.08239X$1,22.5*%
G01*
%ADD10C,0.101600*%


D10*
X43308Y151192D02*
X43308Y142754D01*
X43310Y142641D01*
X43316Y142528D01*
X43326Y142415D01*
X43340Y142302D01*
X43357Y142190D01*
X43379Y142079D01*
X43404Y141969D01*
X43434Y141859D01*
X43467Y141751D01*
X43504Y141644D01*
X43544Y141538D01*
X43589Y141434D01*
X43637Y141331D01*
X43688Y141230D01*
X43743Y141131D01*
X43801Y141034D01*
X43863Y140939D01*
X43928Y140846D01*
X43996Y140756D01*
X44067Y140668D01*
X44142Y140582D01*
X44219Y140499D01*
X44299Y140419D01*
X44382Y140342D01*
X44468Y140267D01*
X44556Y140196D01*
X44646Y140128D01*
X44739Y140063D01*
X44834Y140001D01*
X44931Y139943D01*
X45030Y139888D01*
X45131Y139837D01*
X45234Y139789D01*
X45338Y139744D01*
X45444Y139704D01*
X45551Y139667D01*
X45659Y139634D01*
X45769Y139604D01*
X45879Y139579D01*
X45990Y139557D01*
X46102Y139540D01*
X46215Y139526D01*
X46328Y139516D01*
X46441Y139510D01*
X46554Y139508D01*
X46667Y139510D01*
X46780Y139516D01*
X46893Y139526D01*
X47006Y139540D01*
X47118Y139557D01*
X47229Y139579D01*
X47339Y139604D01*
X47449Y139634D01*
X47557Y139667D01*
X47664Y139704D01*
X47770Y139744D01*
X47874Y139789D01*
X47977Y139837D01*
X48078Y139888D01*
X48177Y139943D01*
X48274Y140001D01*
X48369Y140063D01*
X48462Y140128D01*
X48552Y140196D01*
X48640Y140267D01*
X48726Y140342D01*
X48809Y140419D01*
X48889Y140499D01*
X48966Y140582D01*
X49041Y140668D01*
X49112Y140756D01*
X49180Y140846D01*
X49245Y140939D01*
X49307Y141034D01*
X49365Y141131D01*
X49420Y141230D01*
X49471Y141331D01*
X49519Y141434D01*
X49564Y141538D01*
X49604Y141644D01*
X49641Y141751D01*
X49674Y141859D01*
X49704Y141969D01*
X49729Y142079D01*
X49751Y142190D01*
X49768Y142302D01*
X49782Y142415D01*
X49792Y142528D01*
X49798Y142641D01*
X49800Y142754D01*
X49799Y142754D02*
X49799Y151192D01*
X57603Y151192D02*
X57603Y139508D01*
X57603Y145350D02*
X55980Y146324D01*
X55979Y146323D02*
X55906Y146370D01*
X55835Y146419D01*
X55765Y146472D01*
X55699Y146528D01*
X55635Y146587D01*
X55573Y146648D01*
X55515Y146712D01*
X55459Y146779D01*
X55407Y146848D01*
X55357Y146920D01*
X55311Y146994D01*
X55268Y147069D01*
X55229Y147147D01*
X55193Y147226D01*
X55161Y147307D01*
X55132Y147389D01*
X55107Y147472D01*
X55086Y147556D01*
X55069Y147641D01*
X55055Y147727D01*
X55046Y147813D01*
X55040Y147900D01*
X55038Y147987D01*
X55040Y148074D01*
X55046Y148161D01*
X55056Y148247D01*
X55069Y148333D01*
X55087Y148418D01*
X55108Y148502D01*
X55133Y148585D01*
X55162Y148668D01*
X55194Y148748D01*
X55230Y148827D01*
X55269Y148905D01*
X55312Y148980D01*
X55359Y149054D01*
X55408Y149125D01*
X55461Y149195D01*
X55516Y149261D01*
X55575Y149325D01*
X55636Y149387D01*
X55701Y149446D01*
X55767Y149501D01*
X55836Y149554D01*
X55908Y149604D01*
X55981Y149650D01*
X56057Y149693D01*
X56134Y149732D01*
X56213Y149768D01*
X56294Y149801D01*
X56376Y149829D01*
X56459Y149855D01*
X56543Y149876D01*
X56629Y149893D01*
X56629Y149894D02*
X56769Y149918D01*
X56911Y149938D01*
X57052Y149954D01*
X57194Y149965D01*
X57337Y149973D01*
X57479Y149977D01*
X57622Y149978D01*
X57765Y149974D01*
X57907Y149966D01*
X58049Y149954D01*
X58191Y149938D01*
X58332Y149919D01*
X58473Y149895D01*
X58613Y149868D01*
X58752Y149836D01*
X58890Y149801D01*
X59028Y149762D01*
X59164Y149719D01*
X59298Y149673D01*
X59432Y149622D01*
X59564Y149569D01*
X59694Y149511D01*
X59823Y149450D01*
X59950Y149385D01*
X60076Y149317D01*
X60199Y149245D01*
X57603Y145350D02*
X59225Y144376D01*
X59226Y144377D02*
X59299Y144330D01*
X59370Y144281D01*
X59440Y144228D01*
X59506Y144172D01*
X59570Y144113D01*
X59632Y144052D01*
X59690Y143988D01*
X59746Y143921D01*
X59798Y143852D01*
X59848Y143780D01*
X59894Y143706D01*
X59937Y143631D01*
X59976Y143553D01*
X60012Y143474D01*
X60044Y143393D01*
X60073Y143311D01*
X60098Y143228D01*
X60119Y143144D01*
X60136Y143059D01*
X60150Y142973D01*
X60159Y142887D01*
X60165Y142800D01*
X60167Y142713D01*
X60165Y142626D01*
X60159Y142539D01*
X60149Y142453D01*
X60136Y142367D01*
X60118Y142282D01*
X60097Y142198D01*
X60072Y142115D01*
X60043Y142032D01*
X60011Y141952D01*
X59975Y141873D01*
X59936Y141795D01*
X59893Y141720D01*
X59846Y141646D01*
X59797Y141575D01*
X59744Y141505D01*
X59689Y141439D01*
X59630Y141375D01*
X59569Y141313D01*
X59504Y141254D01*
X59438Y141199D01*
X59369Y141146D01*
X59297Y141096D01*
X59224Y141050D01*
X59148Y141007D01*
X59071Y140968D01*
X58992Y140932D01*
X58911Y140899D01*
X58829Y140871D01*
X58746Y140845D01*
X58662Y140824D01*
X58577Y140807D01*
X58576Y140806D02*
X58436Y140782D01*
X58294Y140762D01*
X58153Y140746D01*
X58011Y140735D01*
X57868Y140727D01*
X57726Y140723D01*
X57583Y140722D01*
X57440Y140726D01*
X57298Y140734D01*
X57156Y140746D01*
X57014Y140762D01*
X56873Y140781D01*
X56732Y140805D01*
X56592Y140832D01*
X56453Y140864D01*
X56315Y140899D01*
X56177Y140938D01*
X56041Y140981D01*
X55907Y141027D01*
X55773Y141078D01*
X55641Y141131D01*
X55511Y141189D01*
X55382Y141250D01*
X55255Y141315D01*
X55129Y141383D01*
X55006Y141455D01*
X65025Y148596D02*
X68271Y151192D01*
X68271Y139508D01*
X71516Y139508D02*
X65025Y139508D01*
M02*
